<?xml version="1.0" encoding="UTF-8"?>
<!DOCTYPE svg PUBLIC "-//W3C//DTD SVG 1.1//EN" "http://www.w3.org/Graphics/SVG/1.1/DTD/svg11.dtd">
<svg xmlns="http://www.w3.org/2000/svg" version="1.1" width="120px" height="47px" style="shape-rendering:geometricPrecision; text-rendering:geometricPrecision; image-rendering:optimizeQuality; fill-rule:evenodd; clip-rule:evenodd" xmlns:xlink="http://www.w3.org/1999/xlink">
<g><path style="opacity:1" fill="#996b47" d="M 16.5,17.5 C 15.8333,17.8333 15.1667,18.1667 14.5,18.5C 13.6336,15.4551 14.3003,12.6218 16.5,10C 15.5294,8.79637 14.5294,8.29637 13.5,8.5C 15.9659,7.11926 17.9659,7.61926 19.5,10C 17.3501,12.0413 16.3501,14.5413 16.5,17.5 Z"/></g>
<g><path style="opacity:1" fill="#9f6f48" d="M 11.5,18.5 C 10.8333,18.5 10.1667,18.5 9.5,18.5C 9.51069,16.6183 9.84402,14.6183 10.5,12.5C 9.39656,12.0024 8.39656,11.6691 7.5,11.5C 9.39605,10.5344 11.396,10.2011 13.5,10.5C 12.3608,13.0037 11.6941,15.6703 11.5,18.5 Z"/></g>
<g><path style="opacity:0.999" fill="#b37c50" d="M 21.5,16.5 C 20.1667,16.5 19.5,15.8333 19.5,14.5C 20.2299,13.2876 21.2299,12.2876 22.5,11.5C 20.2773,8.07414 20.944,7.7408 24.5,10.5C 24.8333,10.8333 25.1667,11.1667 25.5,11.5C 23.3886,12.6046 22.0553,14.2712 21.5,16.5 Z"/></g>
<g><path style="opacity:0.212" fill="#1d160f" d="M 19.5,14.5 C 19.5,15.8333 20.1667,16.5 21.5,16.5C 21.5,16.8333 21.5,17.1667 21.5,17.5C 20.5,17.5 19.5,17.5 18.5,17.5C 18.2627,16.209 18.596,15.209 19.5,14.5 Z"/></g>
<g><path style="opacity:1" fill="#ced4d6" d="M 16.5,17.5 C 17.1667,17.5 17.8333,17.5 18.5,17.5C 19.5,17.5 20.5,17.5 21.5,17.5C 24.5857,17.5989 26.919,18.9322 28.5,21.5C 28.5,21.8333 28.5,22.1667 28.5,22.5C 28.5,22.8333 28.5,23.1667 28.5,23.5C 28.5,25.1667 28.5,26.8333 28.5,28.5C 27.6615,26.2186 26.6615,23.8852 25.5,21.5C 25.0431,20.7025 24.3764,20.3691 23.5,20.5C 22.6136,19.2241 21.6136,19.2241 20.5,20.5C 18.3773,22.7454 17.3773,25.4121 17.5,28.5C 16.6851,29.4293 15.8518,30.4293 15,31.5C 14.5,31 14,30.5 13.5,30C 14.7911,28.7083 14.7911,27.5417 13.5,26.5C 13.44,25.9569 13.1067,25.6236 12.5,25.5C 10.8333,26.3333 9.16667,27.1667 7.5,28C 8.05596,28.3826 8.38929,28.8826 8.5,29.5C 7.66175,29.8417 7.32842,30.5084 7.5,31.5C 4.92516,28.9549 4.92516,26.2882 7.5,23.5C 7.5,23.1667 7.5,22.8333 7.5,22.5C 8.16667,22.5 8.5,22.1667 8.5,21.5C 10.0269,21.573 11.0269,20.9063 11.5,19.5C 12.391,18.8902 13.391,18.5569 14.5,18.5C 15.1667,18.1667 15.8333,17.8333 16.5,17.5 Z"/></g>
<g><path style="opacity:1" fill="#363435" d="M 9.5,18.5 C 10.1667,18.5 10.8333,18.5 11.5,18.5C 11.5,18.8333 11.5,19.1667 11.5,19.5C 11.0269,20.9063 10.0269,21.573 8.5,21.5C 7.83333,21.5 7.5,21.8333 7.5,22.5C 7.5,22.8333 7.5,23.1667 7.5,23.5C 6.62356,23.6309 5.95689,23.2975 5.5,22.5C 6.54868,20.7844 7.88201,19.4511 9.5,18.5 Z"/></g>
<g><path style="opacity:0.855" fill="#df2690" d="M 100.5,19.5 C 100.5,20.1667 100.167,20.5 99.5,20.5C 96.8806,20.2317 94.3806,20.565 92,21.5C 91.5014,25.1516 91.3347,28.8183 91.5,32.5C 92.5,32.5 93.5,32.5 94.5,32.5C 93.4324,33.4345 92.099,33.7678 90.5,33.5C 90.6716,32.5084 90.3382,31.8417 89.5,31.5C 88.1667,29.1667 88.1667,26.8333 89.5,24.5C 90.2344,23.1225 90.9011,21.6225 91.5,20C 94.4816,19.502 97.4816,19.3354 100.5,19.5 Z"/></g>
<g><path style="opacity:0.196" fill="#a5125a" d="M 100.5,19.5 C 101.222,19.9175 101.722,20.5842 102,21.5C 106.118,20.2023 110.285,20.2023 114.5,21.5C 115.833,24.496 114.833,26.1626 111.5,26.5C 112.267,30.6507 110.767,33.3174 107,34.5C 105.674,34.2451 104.674,33.5784 104,32.5C 103.289,30.1009 103.456,27.7676 104.5,25.5C 102.473,23.661 100.14,23.161 97.5,24C 101.343,26.738 101.176,28.9047 97,30.5C 96.51,31.7932 96.3433,33.1266 96.5,34.5C 94.2646,34.7947 92.2646,34.4614 90.5,33.5C 92.099,33.7678 93.4324,33.4345 94.5,32.5C 94.5,30.8333 94.5,29.1667 94.5,27.5C 98.5,26.8333 98.5,26.1667 94.5,25.5C 94.3505,24.448 94.5172,23.448 95,22.5C 96.6225,21.9011 98.1225,21.2344 99.5,20.5C 100.167,20.5 100.5,20.1667 100.5,19.5 Z"/></g>
<g><path style="opacity:0.782" fill="#b72b7d" d="M 47.5,25.5 C 47.7678,27.099 47.4345,28.4324 46.5,29.5C 46.3491,25.686 44.3491,24.0193 40.5,24.5C 39.0821,22.2267 39.0821,24.8933 40.5,32.5C 40.1583,33.3382 39.4916,33.6716 38.5,33.5C 37.3516,29.0189 37.1849,24.3522 38,19.5C 42.152,17.5081 43.9854,18.8415 43.5,23.5C 45.3797,23.2291 46.713,23.8958 47.5,25.5 Z"/></g>
<g><path style="opacity:1" fill="#3863ab" d="M 103.5,22.5 C 106.287,21.5233 109.287,21.19 112.5,21.5C 112.5,22.5 112.5,23.5 112.5,24.5C 111.167,24.5 109.833,24.5 108.5,24.5C 108.896,27.4822 108.229,30.1489 106.5,32.5C 105.679,29.5535 105.179,26.5535 105,23.5C 104.617,22.944 104.117,22.6107 103.5,22.5 Z"/></g>
<g><path style="opacity:1" fill="#4162aa" d="M 99.5,20.5 C 98.1225,21.2344 96.6225,21.9011 95,22.5C 94.5172,23.448 94.3505,24.448 94.5,25.5C 98.5,26.1667 98.5,26.8333 94.5,27.5C 94.5,29.1667 94.5,30.8333 94.5,32.5C 93.5,32.5 92.5,32.5 91.5,32.5C 91.3347,28.8183 91.5014,25.1516 92,21.5C 94.3806,20.565 96.8806,20.2317 99.5,20.5 Z"/></g>
<g><path style="opacity:1" fill="#3764ac" d="M 46.5,29.5 C 44.5877,30.7992 42.5877,31.7992 40.5,32.5C 39.0821,24.8933 39.0821,22.2267 40.5,24.5C 44.3491,24.0193 46.3491,25.686 46.5,29.5 Z"/></g>
<g><path style="opacity:1" fill="#4f5fa8" d="M 63.5,23.5 C 66.9207,25.1466 70.5874,25.8132 74.5,25.5C 74.3872,32.6619 73.3872,32.9952 71.5,26.5C 70.1399,30.3397 68.6399,30.3397 67,26.5C 65.6814,28.2495 65.1814,30.2495 65.5,32.5C 64.8826,32.3893 64.3826,32.056 64,31.5C 63.5026,28.854 63.3359,26.1873 63.5,23.5 Z"/></g>
<g><path style="opacity:1" fill="#505055" d="M 13.5,26.5 C 12.9517,29.0838 11.285,30.0838 8.5,29.5C 8.38929,28.8826 8.05596,28.3826 7.5,28C 9.16667,27.1667 10.8333,26.3333 12.5,25.5C 13.1067,25.6236 13.44,25.9569 13.5,26.5 Z"/></g>
<g><path style="opacity:1" fill="#645c9f" d="M 23.5,20.5 C 25.9944,24.7371 25.9944,28.7371 23.5,32.5C 23.5,32.1667 23.5,31.8333 23.5,31.5C 23.5,30.1667 23.5,28.8333 23.5,27.5C 22.5,27.5 21.5,27.5 20.5,27.5C 20.7947,29.7354 20.4614,31.7354 19.5,33.5C 17.7868,32.3646 17.1201,30.698 17.5,28.5C 17.3773,25.4121 18.3773,22.7454 20.5,20.5C 21.6136,19.2241 22.6136,19.2241 23.5,20.5 Z"/></g>
<g><path style="opacity:0.537" fill="#a4135e" d="M 41.5,26.5 C 42.5,26.5 43.5,26.5 44.5,26.5C 44.5,27.5 44.5,28.5 44.5,29.5C 43.5,29.5 42.5,29.5 41.5,29.5C 41.5,28.5 41.5,27.5 41.5,26.5 Z"/></g>
<g><path style="opacity:0.902" fill="#bb267d" d="M 28.5,21.5 C 29.9187,20.5489 31.5853,20.2155 33.5,20.5C 34.5392,24.6579 34.5392,28.6579 33.5,32.5C 33.7603,28.6521 33.0936,24.9855 31.5,21.5C 31.3114,24.9851 31.3114,28.6518 31.5,32.5C 31.1667,32.5 30.8333,32.5 30.5,32.5C 29.8333,29.5 29.1667,26.5 28.5,23.5C 28.5,23.1667 28.5,22.8333 28.5,22.5C 29.8333,22.1667 29.8333,21.8333 28.5,21.5 Z"/></g>
<g><path style="opacity:1" fill="#4360a9" d="M 33.5,32.5 C 32.8333,32.5 32.1667,32.5 31.5,32.5C 31.3114,28.6518 31.3114,24.9851 31.5,21.5C 33.0936,24.9855 33.7603,28.6521 33.5,32.5 Z"/></g>
<g><path style="opacity:1" fill="#d5dde0" d="M 13.5,26.5 C 14.7911,27.5417 14.7911,28.7083 13.5,30C 14,30.5 14.5,31 15,31.5C 15.8518,30.4293 16.6851,29.4293 17.5,28.5C 17.1201,30.698 17.7868,32.3646 19.5,33.5C 19.56,34.0431 19.8933,34.3764 20.5,34.5C 21.2978,32.9223 21.7978,31.2556 22,29.5C 22.2784,30.4158 22.7784,31.0825 23.5,31.5C 23.5,31.8333 23.5,32.1667 23.5,32.5C 22.6618,32.8417 22.3284,33.5084 22.5,34.5C 22.5,35.8333 22.5,37.1667 22.5,38.5C 19.1825,39.2209 15.8492,39.3876 12.5,39C 11.3365,36.0534 9.6698,33.5534 7.5,31.5C 7.32842,30.5084 7.66175,29.8417 8.5,29.5C 11.285,30.0838 12.9517,29.0838 13.5,26.5 Z"/></g>
<g><path style="opacity:1" fill="#b6397c" d="M 23.5,31.5 C 22.7784,31.0825 22.2784,30.4158 22,29.5C 21.7978,31.2556 21.2978,32.9223 20.5,34.5C 19.8933,34.3764 19.56,34.0431 19.5,33.5C 20.4614,31.7354 20.7947,29.7354 20.5,27.5C 21.5,27.5 22.5,27.5 23.5,27.5C 23.5,28.8333 23.5,30.1667 23.5,31.5 Z"/></g>
<g><path style="opacity:0.665" fill="#a31b62" d="M 63.5,23.5 C 63.9169,22.8761 64.5836,22.5427 65.5,22.5C 68.6687,23.9588 72.002,24.7922 75.5,25C 76.056,25.3826 76.3893,25.8826 76.5,26.5C 76.5,28.5 76.5,30.5 76.5,32.5C 74.901,32.2322 73.5676,32.5655 72.5,33.5C 71.5326,32.1938 70.1993,31.5271 68.5,31.5C 67.391,31.5569 66.391,31.8902 65.5,32.5C 65.1814,30.2495 65.6814,28.2495 67,26.5C 68.6399,30.3397 70.1399,30.3397 71.5,26.5C 73.3872,32.9952 74.3872,32.6619 74.5,25.5C 70.5874,25.8132 66.9207,25.1466 63.5,23.5 Z"/></g>
<g><path style="opacity:0.035" fill="#78063a" d="M 33.5,20.5 C 34.7479,21.3339 35.4146,22.6672 35.5,24.5C 36.0531,27.8167 36.3865,31.15 36.5,34.5C 33.9899,34.9465 31.9899,34.2798 30.5,32.5C 30.8333,32.5 31.1667,32.5 31.5,32.5C 32.1667,32.5 32.8333,32.5 33.5,32.5C 34.5392,28.6579 34.5392,24.6579 33.5,20.5 Z"/></g>
<g><path style="opacity:0.18" fill="#a41258" d="M 63.5,23.5 C 63.3359,26.1873 63.5026,28.854 64,31.5C 64.3826,32.056 64.8826,32.3893 65.5,32.5C 66.391,31.8902 67.391,31.5569 68.5,31.5C 67.9283,34.2436 66.2617,35.0769 63.5,34C 62.7362,31.9307 62.2362,29.764 62,27.5C 61.879,29.7271 61.0456,31.5604 59.5,33C 54.9149,34.5177 51.4149,33.351 49,29.5C 47.2525,32.8344 44.4192,34.5011 40.5,34.5C 39.5836,34.4573 38.9169,34.1239 38.5,33.5C 39.4916,33.6716 40.1583,33.3382 40.5,32.5C 42.5877,31.7992 44.5877,30.7992 46.5,29.5C 47.4345,28.4324 47.7678,27.099 47.5,25.5C 48.2216,25.9175 48.7216,26.5842 49,27.5C 49.49,26.2068 49.6567,24.8734 49.5,23.5C 53.1667,23.5 56.8333,23.5 60.5,23.5C 60.3505,24.552 60.5172,25.552 61,26.5C 61.3768,25.0577 62.2101,24.0577 63.5,23.5 Z"/></g>
<g><path style="opacity:1" fill="#4d5fa8" d="M 50.5,24.5 C 52.0092,26.3365 53.5092,28.3365 55,30.5C 56.0173,28.6241 56.8506,26.6241 57.5,24.5C 58.4742,26.7427 58.8076,29.076 58.5,31.5C 52.7161,32.7157 50.0494,30.3823 50.5,24.5 Z"/></g>
<g><path style="opacity:0.451" fill="#9c1057" d="M 89.5,24.5 C 88.1667,26.8333 88.1667,29.1667 89.5,31.5C 88.1286,32.7868 86.2953,33.4535 84,33.5C 81.6977,33.3996 79.6977,32.733 78,31.5C 76.8271,34.4103 74.9938,35.0769 72.5,33.5C 73.5676,32.5655 74.901,32.2322 76.5,32.5C 76.5,30.5 76.5,28.5 76.5,26.5C 77.1174,26.6107 77.6174,26.944 78,27.5C 78.1909,25.2922 78.6909,23.2922 79.5,21.5C 82.6248,20.5206 85.9581,20.1872 89.5,20.5C 89.5,21.8333 89.5,23.1667 89.5,24.5 Z"/></g>
<g><path style="opacity:1" fill="#4660a9" d="M 79.5,21.5 C 81.5922,21.5614 83.0922,22.5614 84,24.5C 84.2492,23.376 84.7492,22.376 85.5,21.5C 86.8333,25.1667 86.8333,28.8333 85.5,32.5C 83.8786,30.8474 82.7119,28.8474 82,26.5C 81.7978,28.2556 81.2978,29.9223 80.5,31.5C 79.513,28.2317 79.1796,24.8984 79.5,21.5 Z"/></g>
<g><path style="opacity:0.202" fill="#99255c" d="M 23.5,20.5 C 24.3764,20.3691 25.0431,20.7025 25.5,21.5C 26.6615,23.8852 27.6615,26.2186 28.5,28.5C 29.5,33.5 27.5,35.5 22.5,34.5C 22.3284,33.5084 22.6618,32.8417 23.5,32.5C 25.9944,28.7371 25.9944,24.7371 23.5,20.5 Z"/></g>
</svg>
