<?xml version="1.0" encoding="UTF-8"?>
<!DOCTYPE svg PUBLIC "-//W3C//DTD SVG 1.1//EN" "http://www.w3.org/Graphics/SVG/1.1/DTD/svg11.dtd">
<svg xmlns="http://www.w3.org/2000/svg" version="1.1" width="120px" height="47px" style="shape-rendering:geometricPrecision; text-rendering:geometricPrecision; image-rendering:optimizeQuality; fill-rule:evenodd; clip-rule:evenodd" xmlns:xlink="http://www.w3.org/1999/xlink">
<g><path style="opacity:1" fill="#996b47" d="M 13.5,-0.5 C 15.1667,-0.5 16.8333,-0.5 18.5,-0.5C 18.4142,0.495904 18.7476,1.32924 19.5,2C 17.3501,4.04134 16.3501,6.54134 16.5,9.5C 15.8333,9.83333 15.1667,10.1667 14.5,10.5C 13.6336,7.4551 14.3003,4.62177 16.5,2C 15.7471,0.512993 14.9138,0.346326 14,1.5C 13.5357,0.905578 13.369,0.238911 13.5,-0.5 Z"/></g>
<g><path style="opacity:1" fill="#9f6f48" d="M 11.5,10.5 C 10.8333,10.5 10.1667,10.5 9.5,10.5C 9.51069,8.61835 9.84402,6.61835 10.5,4.5C 9.39656,4.00239 8.39656,3.66906 7.5,3.5C 9.39605,2.53443 11.396,2.2011 13.5,2.5C 12.3608,5.00368 11.6941,7.67035 11.5,10.5 Z"/></g>
<g><path style="opacity:1" fill="#a5724a" d="M 21.5,8.5 C 20.1667,8.5 19.5,7.83333 19.5,6.5C 20.2299,5.28763 21.2299,4.28763 22.5,3.5C 20.2773,0.0741373 20.944,-0.259196 24.5,2.5C 24.8333,2.83333 25.1667,3.16667 25.5,3.5C 23.3886,4.60458 22.0553,6.27124 21.5,8.5 Z"/></g>
<g><path style="opacity:0.212" fill="#1d160f" d="M 19.5,6.5 C 19.5,7.83333 20.1667,8.5 21.5,8.5C 21.5,8.83333 21.5,9.16667 21.5,9.5C 20.5,9.5 19.5,9.5 18.5,9.5C 18.2627,8.20895 18.596,7.20895 19.5,6.5 Z"/></g>
<g><path style="opacity:1" fill="#d7dfe0" d="M 16.5,9.5 C 17.1667,9.5 17.8333,9.5 18.5,9.5C 19.5,9.5 20.5,9.5 21.5,9.5C 22.1667,9.5 22.8333,9.5 23.5,9.5C 23.1193,10.9311 22.1193,11.7645 20.5,12C 22.492,12.5743 23.992,13.741 25,15.5C 25.3173,13.6992 25.984,13.3659 27,14.5C 27.4966,16.8098 27.6633,19.1432 27.5,21.5C 27.5,21.8333 27.5,22.1667 27.5,22.5C 27.1667,22.5 26.8333,22.5 26.5,22.5C 25.7777,21.4489 24.7777,20.7822 23.5,20.5C 23.5,19.8333 23.1667,19.5 22.5,19.5C 20.2543,14.1035 18.2543,14.2702 16.5,20C 17.056,20.3826 17.3893,20.8826 17.5,21.5C 16.5416,21.9528 15.7083,22.6195 15,23.5C 13.8437,22.4982 13.3437,21.4982 13.5,20.5C 13.719,19.325 13.3857,18.325 12.5,17.5C 10.8333,18.3333 9.16667,19.1667 7.5,20C 8.05596,20.3826 8.38929,20.8826 8.5,21.5C 7.66175,21.8417 7.32842,22.5084 7.5,23.5C 4.92516,20.9549 4.92516,18.2882 7.5,15.5C 7.5,15.1667 7.5,14.8333 7.5,14.5C 8.16667,14.5 8.5,14.1667 8.5,13.5C 10.0269,13.573 11.0269,12.9063 11.5,11.5C 12.391,10.8902 13.391,10.5569 14.5,10.5C 15.1667,10.1667 15.8333,9.83333 16.5,9.5 Z"/></g>
<g><path style="opacity:1" fill="#363435" d="M 9.5,10.5 C 10.1667,10.5 10.8333,10.5 11.5,10.5C 11.5,10.8333 11.5,11.1667 11.5,11.5C 11.0269,12.9063 10.0269,13.573 8.5,13.5C 7.83333,13.5 7.5,13.8333 7.5,14.5C 7.5,14.8333 7.5,15.1667 7.5,15.5C 6.62356,15.6309 5.95689,15.2975 5.5,14.5C 6.54868,12.7844 7.88201,11.4511 9.5,10.5 Z"/></g>
<g><path style="opacity:1" fill="#9ba1a4" d="M 23.5,9.5 C 27.9469,11.7611 29.6136,15.4278 28.5,20.5C 28.5,20.8333 28.5,21.1667 28.5,21.5C 28.1667,21.5 27.8333,21.5 27.5,21.5C 27.6633,19.1432 27.4966,16.8098 27,14.5C 25.984,13.3659 25.3173,13.6992 25,15.5C 23.992,13.741 22.492,12.5743 20.5,12C 22.1193,11.7645 23.1193,10.9311 23.5,9.5 Z"/></g>
<g><path style="opacity:1" fill="#514f55" d="M 22.5,19.5 C 21.5,20.1667 20.5,20.8333 19.5,21.5C 18.8333,21.5 18.1667,21.5 17.5,21.5C 17.3893,20.8826 17.056,20.3826 16.5,20C 18.2543,14.2702 20.2543,14.1035 22.5,19.5 Z"/></g>
<g><path style="opacity:1" fill="#505055" d="M 13.5,20.5 C 11.9582,21.3007 10.2915,21.634 8.5,21.5C 8.38929,20.8826 8.05596,20.3826 7.5,20C 9.16667,19.1667 10.8333,18.3333 12.5,17.5C 13.3857,18.325 13.719,19.325 13.5,20.5 Z"/></g>
<g><path style="opacity:1" fill="#d8e1e3" d="M 13.5,20.5 C 13.3437,21.4982 13.8437,22.4982 15,23.5C 15.7083,22.6195 16.5416,21.9528 17.5,21.5C 18.1667,21.5 18.8333,21.5 19.5,21.5C 17.819,24.582 17.1524,27.9153 17.5,31.5C 17.1667,31.5 16.8333,31.5 16.5,31.5C 15.1266,31.6567 13.7932,31.49 12.5,31C 11.3365,28.0534 9.6698,25.5534 7.5,23.5C 7.32842,22.5084 7.66175,21.8417 8.5,21.5C 10.2915,21.634 11.9582,21.3007 13.5,20.5 Z"/></g>
<g><path style="opacity:0.98" fill="#e4629d" d="M 79.5,21.5 C 81.9479,20.5269 84.6146,20.1936 87.5,20.5C 87.8168,24.7016 87.4834,28.7016 86.5,32.5C 86.8226,28.774 86.4892,25.1073 85.5,21.5C 84.7492,22.376 84.2492,23.376 84,24.5C 83.0922,22.5614 81.5922,21.5614 79.5,21.5 Z"/></g>
<g><path style="opacity:0.129" fill="#9b034b" d="M 38.5,19.5 C 42.3282,17.6393 43.9949,18.9726 43.5,23.5C 41.8235,22.8166 41.1568,21.4832 41.5,19.5C 40.5,19.5 39.5,19.5 38.5,19.5 Z"/></g>
<g><path style="opacity:1" fill="#fce9f2" d="M 79.5,21.5 C 81.5922,21.5614 83.0922,22.5614 84,24.5C 84.2492,23.376 84.7492,22.376 85.5,21.5C 86.4892,25.1073 86.8226,28.774 86.5,32.5C 85.5041,32.5858 84.6708,32.2524 84,31.5C 82.2979,25.0396 81.4646,25.0396 81.5,31.5C 79.5977,28.6627 78.931,25.3293 79.5,21.5 Z"/></g>
<g><path style="opacity:0.18" fill="#f2499c" d="M 100.5,19.5 C 100.672,20.4916 100.338,21.1583 99.5,21.5C 97.1047,20.1857 94.6047,20.1857 92,21.5C 91.5014,25.1516 91.3347,28.8183 91.5,32.5C 92.5,32.5 93.5,32.5 94.5,32.5C 93.4324,33.4345 92.099,33.7678 90.5,33.5C 90.6716,32.5084 90.3382,31.8417 89.5,31.5C 88.1667,29.1667 88.1667,26.8333 89.5,24.5C 90.2344,23.1225 90.9011,21.6225 91.5,20C 94.4816,19.502 97.4816,19.3354 100.5,19.5 Z"/></g>
<g><path style="opacity:1" fill="#fdebf3" d="M 99.5,21.5 C 96.0504,20.7564 94.3838,22.0897 94.5,25.5C 98.5,26.1667 98.5,26.8333 94.5,27.5C 94.5,29.1667 94.5,30.8333 94.5,32.5C 93.5,32.5 92.5,32.5 91.5,32.5C 91.3347,28.8183 91.5014,25.1516 92,21.5C 94.6047,20.1857 97.1047,20.1857 99.5,21.5 Z"/></g>
<g><path style="opacity:0.468" fill="#a01c56" d="M 100.5,19.5 C 101.167,20.1667 101.833,20.8333 102.5,21.5C 103.172,22.2674 104.005,22.9341 105,23.5C 105.179,26.5535 105.679,29.5535 106.5,32.5C 108.229,30.1489 108.896,27.4822 108.5,24.5C 110.099,24.7678 111.432,24.4345 112.5,23.5C 113.404,22.791 113.737,21.791 113.5,20.5C 116.318,23.5463 115.651,25.5463 111.5,26.5C 112.267,30.6507 110.767,33.3174 107,34.5C 105.674,34.2451 104.674,33.5784 104,32.5C 103.289,30.1009 103.456,27.7676 104.5,25.5C 102.473,23.661 100.14,23.161 97.5,24C 101.343,26.738 101.176,28.9047 97,30.5C 96.51,31.7932 96.3433,33.1266 96.5,34.5C 94.2646,34.7947 92.2646,34.4614 90.5,33.5C 92.099,33.7678 93.4324,33.4345 94.5,32.5C 94.5,30.8333 94.5,29.1667 94.5,27.5C 98.5,26.8333 98.5,26.1667 94.5,25.5C 94.3838,22.0897 96.0504,20.7564 99.5,21.5C 100.338,21.1583 100.672,20.4916 100.5,19.5 Z"/></g>
<g><path style="opacity:1" fill="#fdedf4" d="M 102.5,21.5 C 106.329,20.931 109.663,21.5977 112.5,23.5C 111.432,24.4345 110.099,24.7678 108.5,24.5C 108.896,27.4822 108.229,30.1489 106.5,32.5C 105.679,29.5535 105.179,26.5535 105,23.5C 104.005,22.9341 103.172,22.2674 102.5,21.5 Z"/></g>
<g><path style="opacity:0.596" fill="#eb358a" d="M 102.5,21.5 C 105.962,20.5184 109.629,20.185 113.5,20.5C 113.737,21.791 113.404,22.791 112.5,23.5C 109.663,21.5977 106.329,20.931 102.5,21.5 Z"/></g>
<g><path style="opacity:1" fill="#fdd8e9" d="M 38.5,19.5 C 39.5,19.5 40.5,19.5 41.5,19.5C 41.1568,21.4832 41.8235,22.8166 43.5,23.5C 43.8333,23.5 44.1667,23.5 44.5,23.5C 47.8347,28.485 46.5014,31.485 40.5,32.5C 38.5698,28.6273 37.9031,24.294 38.5,19.5 Z"/></g>
<g><path style="opacity:1" fill="#e3689e" d="M 63.5,23.5 C 63.9169,22.8761 64.5836,22.5427 65.5,22.5C 68.8642,23.8352 72.1976,24.8352 75.5,25.5C 75.8076,27.924 75.4742,30.2573 74.5,32.5C 73.8933,32.3764 73.56,32.0431 73.5,31.5C 74.4614,29.7354 74.7947,27.7354 74.5,25.5C 70.5874,25.8132 66.9207,25.1466 63.5,23.5 Z"/></g>
<g><path style="opacity:0.949" fill="#d872a3" d="M 23.5,20.5 C 24.7777,20.7822 25.7777,21.4489 26.5,22.5C 26.81,25.7131 26.4767,28.7131 25.5,31.5C 25.8887,27.5863 25.2221,23.9196 23.5,20.5 Z"/></g>
<g><path style="opacity:1" fill="#fde5f0" d="M 63.5,23.5 C 66.9207,25.1466 70.5874,25.8132 74.5,25.5C 74.7947,27.7354 74.4614,29.7354 73.5,31.5C 72.8365,29.9581 72.1698,28.2914 71.5,26.5C 70.1399,30.3397 68.6399,30.3397 67,26.5C 65.8372,28.2852 65.1705,30.2852 65,32.5C 63.6081,29.7216 63.1081,26.7216 63.5,23.5 Z"/></g>
<g><path style="opacity:1" fill="#f9d8e7" d="M 22.5,19.5 C 23.1667,19.5 23.5,19.8333 23.5,20.5C 25.2221,23.9196 25.8887,27.5863 25.5,31.5C 25.44,32.0431 25.1067,32.3764 24.5,32.5C 23.5481,30.9547 23.2148,29.288 23.5,27.5C 22.5,27.5 21.5,27.5 20.5,27.5C 20.7989,29.604 20.4656,31.604 19.5,33.5C 18.8182,32.7573 18.1515,32.0906 17.5,31.5C 17.1524,27.9153 17.819,24.582 19.5,21.5C 20.5,20.8333 21.5,20.1667 22.5,19.5 Z"/></g>
<g><path style="opacity:0.588" fill="#b3336d" d="M 41.5,26.5 C 42.5,26.5 43.5,26.5 44.5,26.5C 44.5,27.5 44.5,28.5 44.5,29.5C 43.5,29.5 42.5,29.5 41.5,29.5C 41.5,28.5 41.5,27.5 41.5,26.5 Z"/></g>
<g><path style="opacity:0.114" fill="#ac245d" d="M 44.5,23.5 C 46.7525,23.9156 48.2525,25.249 49,27.5C 49.49,26.2068 49.6567,24.8734 49.5,23.5C 53.1667,23.5 56.8333,23.5 60.5,23.5C 60.3505,24.552 60.5172,25.552 61,26.5C 61.3768,25.0577 62.2101,24.0577 63.5,23.5C 63.1081,26.7216 63.6081,29.7216 65,32.5C 65.1705,30.2852 65.8372,28.2852 67,26.5C 68.6399,30.3397 70.1399,30.3397 71.5,26.5C 72.1698,28.2914 72.8365,29.9581 73.5,31.5C 73.56,32.0431 73.8933,32.3764 74.5,32.5C 75.4742,30.2573 75.8076,27.924 75.5,25.5C 76.5,25.8333 77.1667,26.5 77.5,27.5C 77.5,28.8333 77.5,30.1667 77.5,31.5C 77.516,33.4841 76.516,34.4841 74.5,34.5C 72.6195,34.0748 71.1195,33.0748 70,31.5C 64.5568,36.2907 61.8901,34.9574 62,27.5C 61.879,29.7271 61.0456,31.5604 59.5,33C 54.9149,34.5177 51.4149,33.351 49,29.5C 47.2525,32.8344 44.4192,34.5011 40.5,34.5C 39.5836,34.4573 38.9169,34.1239 38.5,33.5C 39.4916,33.6716 40.1583,33.3382 40.5,32.5C 46.5014,31.485 47.8347,28.485 44.5,23.5 Z"/></g>
<g><path style="opacity:0.139" fill="#e31d7c" d="M 38.5,19.5 C 37.9031,24.294 38.5698,28.6273 40.5,32.5C 40.1583,33.3382 39.4916,33.6716 38.5,33.5C 37.1667,28.8333 37.1667,24.1667 38.5,19.5 Z"/></g>
<g><path style="opacity:1" fill="#fce3ef" d="M 50.5,24.5 C 51.5,24.5 52.5,24.5 53.5,24.5C 54.2867,32.4102 55.62,32.4102 57.5,24.5C 58.4742,26.7427 58.8076,29.076 58.5,31.5C 52.6665,32.6627 49.9998,30.3294 50.5,24.5 Z"/></g>
<g><path style="opacity:0.696" fill="#e9509a" d="M 79.5,21.5 C 78.931,25.3293 79.5977,28.6627 81.5,31.5C 80.791,32.404 79.791,32.7373 78.5,32.5C 78.5,31.8333 78.1667,31.5 77.5,31.5C 77.5,30.1667 77.5,28.8333 77.5,27.5C 78.1667,25.5 78.8333,23.5 79.5,21.5 Z"/></g>
<g><path style="opacity:0.816" fill="#f59cc6" d="M 30.5,20.5 C 31.5,20.5 32.5,20.5 33.5,20.5C 33.5,22.1667 33.5,23.8333 33.5,25.5C 32.71,24.3915 32.21,23.0581 32,21.5C 31.5017,24.8168 31.335,28.1501 31.5,31.5C 30.5184,28.0381 30.185,24.3714 30.5,20.5 Z"/></g>
<g><path style="opacity:1" fill="#fce9f2" d="M 33.5,25.5 C 33.5,26.1667 33.5,26.8333 33.5,27.5C 33.7852,29.288 33.4519,30.9547 32.5,32.5C 31.8933,32.3764 31.56,32.0431 31.5,31.5C 31.335,28.1501 31.5017,24.8168 32,21.5C 32.21,23.0581 32.71,24.3915 33.5,25.5 Z"/></g>
<g><path style="opacity:0.035" fill="#78063a" d="M 33.5,20.5 C 35.3892,23.6778 36.3892,27.3445 36.5,31.5C 36.3601,33.0296 35.6935,34.0296 34.5,34.5C 34.8016,31.9407 34.4682,29.6074 33.5,27.5C 33.5,26.8333 33.5,26.1667 33.5,25.5C 33.5,23.8333 33.5,22.1667 33.5,20.5 Z"/></g>
<g><path style="opacity:0.443" fill="#be296d" d="M 28.5,21.5 C 28.5,21.1667 28.5,20.8333 28.5,20.5C 29.1667,20.5 29.8333,20.5 30.5,20.5C 30.185,24.3714 30.5184,28.0381 31.5,31.5C 31.56,32.0431 31.8933,32.3764 32.5,32.5C 33.4519,30.9547 33.7852,29.288 33.5,27.5C 34.4682,29.6074 34.8016,31.9407 34.5,34.5C 32.6096,34.7035 31.1096,34.0368 30,32.5C 29.6465,28.383 29.1465,24.7163 28.5,21.5 Z"/></g>
<g><path style="opacity:0.043" fill="#8f134b" d="M 87.5,20.5 C 89.1765,21.1834 89.8432,22.5168 89.5,24.5C 88.1667,26.8333 88.1667,29.1667 89.5,31.5C 88.1286,32.7868 86.2953,33.4535 84,33.5C 81.9674,33.4944 80.134,33.1611 78.5,32.5C 79.791,32.7373 80.791,32.404 81.5,31.5C 81.4646,25.0396 82.2979,25.0396 84,31.5C 84.6708,32.2524 85.5041,32.5858 86.5,32.5C 87.4834,28.7016 87.8168,24.7016 87.5,20.5 Z"/></g>
<g><path style="opacity:0.137" fill="#9c1c57" d="M 26.5,22.5 C 26.8333,22.5 27.1667,22.5 27.5,22.5C 28.6371,26.3825 28.6371,30.2158 27.5,34C 24.5147,34.8676 21.5147,35.2009 18.5,35C 17.695,33.8873 17.0283,32.7206 16.5,31.5C 16.8333,31.5 17.1667,31.5 17.5,31.5C 18.1515,32.0906 18.8182,32.7573 19.5,33.5C 20.4656,31.604 20.7989,29.604 20.5,27.5C 21.5,27.5 22.5,27.5 23.5,27.5C 23.2148,29.288 23.5481,30.9547 24.5,32.5C 25.1067,32.3764 25.44,32.0431 25.5,31.5C 26.4767,28.7131 26.81,25.7131 26.5,22.5 Z"/></g>
</svg>
